<svg id="svg" version="1.1" xmlns="http://www.w3.org/2000/svg" style="display: block;" viewBox="0 0 362 93"><path d="M0 0 C119.46 0 238.92 0 362 0 C362 30.69 362 61.38 362 93 C242.54 93 123.08 93 0 93 C0 62.31 0 31.62 0 0 Z " transform="translate(0,0)" style="fill: #000000;"/><path d="M0 0 C119.46 0 238.92 0 362 0 C362 14.19 362 28.38 362 43 C360.02 43.33 358.04 43.66 356 44 C356.7425 42.2675 356.7425 42.2675 357.5 40.5 C359.15562957 36.14717108 359.24775605 32.62477967 359 28 C357.31026274 27.11443256 357.31026274 27.11443256 355 27 C351.76238866 28.85250004 351.76238866 28.85250004 349 31 C349.45636536 29.603522 349.91519488 28.2078492 350.375 26.8125 C350.64570313 25.98621094 350.91640625 25.15992187 351.1953125 24.30859375 C352 22 352 22 353.25 19.375 C354.29978816 16.05067083 353.66132784 13.372772 353 10 C351.02 9.67 349.04 9.34 347 9 C346.64228516 10.23556641 346.64228516 10.23556641 346.27734375 11.49609375 C344.76601006 15.64186232 342.79482053 19.26764135 340.5625 23.0625 C340.12873047 23.80040771 339.69496094 24.53831543 339.24804688 25.29858398 C336.18223412 30.36799941 332.82631806 35.04095162 329 39.5625 C328.53150635 40.11623291 328.0630127 40.66996582 327.58032227 41.24047852 C326.43780705 42.54024945 325.2247345 43.77739177 324 45 C323.34 45 322.68 45 322 45 C322.144375 44.41992188 322.28875 43.83984375 322.4375 43.2421875 C323.49969633 38.77211126 324.44045479 34.62477532 324 30 C322.40168053 26.85279103 322.40168053 26.85279103 320.046875 26.56640625 C311.32939252 26.5515806 307.80291313 30.13268353 301.8125 36.0625 C300.20474609 37.70482926 298.60015721 39.35026821 297 41 C296.00216684 42.00216215 295.00326262 43.0032733 294 44 C293.86722656 43.16855469 293.73445313 42.33710937 293.59765625 41.48046875 C293.42105469 40.39378906 293.24445313 39.30710938 293.0625 38.1875 C292.88847656 37.10855469 292.71445312 36.02960937 292.53515625 34.91796875 C292.06128079 31.95066644 292.06128079 31.95066644 291 29 C291.78375 28.505 292.5675 28.01 293.375 27.5 C296.74292979 24.29244782 297.8006916 21.62742103 298 17 C296.47888173 11.72082482 294.07018053 8.63016101 290 5 C291.32 3.68 292.64 2.36 294 1 C288.86523753 2.12385353 288.86523753 2.12385353 284 4 C281.66802901 4.13117337 279.33420492 4.23014398 277 4.3125 C267.46116547 4.81868412 259.82645739 7.17354261 253 14 C249.28643583 19.25021141 248.55021258 23.59052931 249 30 C250.02877392 32.91080119 250.02877392 32.91080119 252 35 C254.51176074 35.81931089 254.51176074 35.81931089 257 36 C257.66 36.33 258.32 36.66 259 37 C251.80226739 49.3511388 251.80226739 49.3511388 246 52 C243.125 52.25 243.125 52.25 241 52 C240.67 50.68 240.34 49.36 240 48 C241.98 47.01 241.98 47.01 244 46 C244.25015873 42.58357241 244.25015873 42.58357241 244 39 C241.18467943 36.71007316 241.18467943 36.71007316 238 37.0625 C234.80422176 37.73508902 234.80422176 37.73508902 233.125 40.5625 C232.568125 41.7690625 232.568125 41.7690625 232 43 C232.99 43 233.98 43 235 43 C233.6513881 47.13237764 231.95618595 49.34731405 228.6875 52.1875 C227.92824219 52.86167969 227.16898438 53.53585938 226.38671875 54.23046875 C222.13270522 57.38442641 218.16996313 58.52755577 212.9375 58.37890625 C209.42672149 57.69232255 207.97685488 55.84172889 206 53 C205.875 49.8203125 205.875 49.8203125 206 47 C205.26394531 47.62648437 204.52789062 48.25296875 203.76953125 48.8984375 C202.79371094 49.71570312 201.81789062 50.53296875 200.8125 51.375 C199.84957031 52.18710937 198.88664063 52.99921875 197.89453125 53.8359375 C194.05299503 56.70801721 191.56574102 58.15055202 186.75 57.6875 C184 57 184 57 183 56 C182.01086937 48.79347687 184.6997663 43.47156522 187.6875 37.07421875 C189.19632479 34.09726845 189.19632479 34.09726845 189 31 C183.07086933 36.45550189 178.77992089 42.3533299 174.65625 49.24609375 C170.33133188 56.43231441 170.33133188 56.43231441 167 58 C163.25 58.1875 163.25 58.1875 160 58 C158.83445905 55.17702678 158.95832885 54.107791 160.07983398 51.20678711 C160.90463257 49.63296265 160.90463257 49.63296265 161.74609375 48.02734375 C162.33583984 46.88072266 162.92558594 45.73410156 163.53320312 44.55273438 C164.16714125 43.34722074 164.80191643 42.14214693 165.4375 40.9375 C166.67310083 38.57546154 167.89863704 36.20877022 169.12109375 33.83984375 C169.6720874 32.79175537 170.22308105 31.74366699 170.79077148 30.66381836 C172.20667509 28.0322862 172.20667509 28.0322862 172 25 C166.03798211 31.22699646 161.11643175 37.41285128 157 45 C158.32 45.33 159.64 45.66 161 46 C161 46.99 161 47.98 161 49 C159.783125 49.391875 158.56625 49.78375 157.3125 50.1875 C153.26509379 51.6873367 150.8520278 53.71584678 148 57 C147 58 147 58 143.4375 58.0625 C142.303125 58.041875 141.16875 58.02125 140 58 C138.38385386 53.15156157 140.02579569 50.52421822 142 46 C141.81627212 43.65518954 141.81627212 43.65518954 141 42 C139.20631307 41.1881959 139.20631307 41.1881959 137 41 C134.97465493 42.38658272 134.97465493 42.38658272 133.125 44.375 C129.8299819 47.47873428 127.68187102 48.88295322 123 49 C122.67 48.01 122.34 47.02 122 46 C122.59167969 45.68546875 123.18335937 45.3709375 123.79296875 45.046875 C131.88784127 40.70518893 131.88784127 40.70518893 138 34 C138.33338596 30.45812169 138.33338596 30.45812169 138 27 C136.04286944 24.64156025 136.04286944 24.64156025 132.4375 24.5 C125.54838047 24.73584373 120.92663677 28.98256445 116.34765625 33.77734375 C114.62758354 35.6994808 112.93038491 37.64244485 111.26171875 39.609375 C109.20041772 41.7881595 107.75432038 42.91591967 105 44 C105.78018183 39.0588484 107.75784726 35.08099751 109.94140625 30.62109375 C111.24965727 27.85297693 111.24965727 27.85297693 111 24 C107.37 24.33 103.74 24.66 100 25 C99.67 23.35 99.34 21.7 99 20 C96.02934491 20.34227572 96.02934491 20.34227572 93 21 C91.72883168 23.09734247 91.72883168 23.09734247 92.3125 26.125 C91.75937439 32.98375762 87.15507949 37.14606154 82.125 41.5 C81.09036153 42.34204343 80.05130638 43.17886129 79 44 C79.62265713 40.5131201 80.56294028 37.33209746 81.75 34 C83.05270972 29.93233578 83.05270972 29.93233578 81.6875 25.875 C81.130625 25.25625 80.57375 24.6375 80 24 C76.25489521 24.20658051 75.14818028 24.83776404 72.5703125 27.66015625 C71.74261702 28.78511442 70.92803078 29.91980483 70.125 31.0625 C69.25319577 32.24748928 68.37949324 33.43108429 67.50390625 34.61328125 C67.07996582 35.19158691 66.65602539 35.76989258 66.21923828 36.36572266 C64.57907782 38.56420766 62.84823387 40.66853951 61.0625 42.75 C60.53785156 43.36359375 60.01320312 43.9771875 59.47265625 44.609375 C58 46 58 46 55 47 C55.97319605 38.46787024 60.03803818 28.39513247 66.6484375 22.73046875 C69.3125 21.1875 69.3125 21.1875 71.80078125 20.04296875 C74.06111981 18.97101423 75.27345775 17.76704764 77 16 C77.66 16 78.32 16 79 16 C79.33 15.34 79.66 14.68 80 14 C80 15.65 80 17.3 80 19 C85.17002684 19.43870933 85.17002684 19.43870933 89.9375 17.9375 C91.51168665 15.06692435 91.69573087 12.2252528 92 9 C88.48966871 7.31369881 88.48966871 7.31369881 84.6875 7.375 C84.130625 7.58125 83.57375 7.7875 83 8 C82.505 6.02 82.505 6.02 82 4 C74.48863254 3.16540362 69.89665178 5.3701714 64 10 C61.53595039 12.45248131 59.25002552 14.97690705 57.0078125 17.6328125 C56.34523437 18.41398437 55.68265625 19.19515625 55 20 C54.03707031 21.14082031 54.03707031 21.14082031 53.0546875 22.3046875 C51 24 51 24 48.25 24.25 C47.5075 24.1675 46.765 24.085 46 24 C48.14418197 17.26798735 50.19356433 12.19614667 55 7 C55.33 6.01 55.66 5.02 56 4 C50.09207545 5.1313047 46.53149052 7.62195019 41.91796875 11.44140625 C38.53802866 14.18803781 36.2918754 14.09330164 32 14 C31.3125 11.6875 31.3125 11.6875 31 9 C32.4375 7.3125 32.4375 7.3125 34 6 C34 5.34 34 4.68 34 4 C29.60157266 4.25873102 27.50477078 4.56106889 24.125 7.5 C23.42375 8.325 22.7225 9.15 22 10 C21.67 10.33 21.34 10.66 21 11 C20.92773498 12.85287502 20.9161878 14.70833878 20.9375 16.5625 C20.94652344 17.57441406 20.95554687 18.58632813 20.96484375 19.62890625 C20.97644531 20.41136719 20.98804687 21.19382812 21 22 C26.79141983 23.01603857 30.4584498 22.96263236 36 21 C33.15022324 26.69955352 31.29120817 27.96516705 25.4453125 30.68359375 C23.14214397 31.9234784 21.63294829 32.97233242 20 35 C20 35.66 20 36.32 20 37 C22.93703384 36.37063561 25.33788628 35.37579827 28 34 C21.96179313 46.94360301 21.96179313 46.94360301 15 50 C12.1875 49.6875 12.1875 49.6875 10 49 C9.505 47.515 9.505 47.515 9 46 C10.29477593 44.51100768 11.59191988 43.02371087 12.91796875 41.5625 C14.29399185 39.92132304 14.29399185 39.92132304 13.8125 37.125 C13.544375 36.42375 13.27625 35.7225 13 35 C8.51866426 34.27743171 8.51866426 34.27743171 4 34 C3.71125 34.598125 3.4225 35.19625 3.125 35.8125 C2 38 2 38 0 41 C0 27.47 0 13.94 0 0 Z " transform="translate(0,0)" style="fill: #000000;"/><path d="M0 0 C-0.309375 0.556875 -0.61875 1.11375 -0.9375 1.6875 C-2.05761821 4.12540433 -2.56037364 6.36224186 -3 9 C3.16218867 9.58687511 6.04038937 7.32165011 10.7578125 3.62109375 C15.44653997 0.05887873 15.44653997 0.05887873 18.9375 -0.3125 C19.618125 -0.209375 20.29875 -0.10625 21 0 C20.59591062 2.72760329 20.00288429 3.99661842 18.1875 6.125 C15.18720397 10.06824621 13.68902713 14.37314378 12 19 C14.75382374 19.2032794 14.75382374 19.2032794 18 18 C19.90730469 15.92374991 21.49558694 13.7078287 23.14453125 11.421875 C27.23613005 6.08126183 32.60519691 1.26482609 39 -1 C41.72179545 -1.21774364 44.26114765 -1.14166478 47 -1 C47.99 0.98 47.99 0.98 49 3 C49.556875 2.773125 50.11375 2.54625 50.6875 2.3125 C53.92123084 1.87550935 55.39073978 3.18801373 58 5 C57.7128051 8.73353364 57.46797134 11.32404139 55.3125 14.4375 C52.34136037 16.44502678 50.51919011 16.38252066 47 16 C45 15 45 15 44 12 C43.49210937 12.39832031 42.98421875 12.79664063 42.4609375 13.20703125 C41.77257812 13.73683594 41.08421875 14.26664063 40.375 14.8125 C39.70210938 15.33457031 39.02921875 15.85664063 38.3359375 16.39453125 C36 18 36 18 32.99609375 19.20703125 C28.8754426 21.67297503 27.63856914 24.60342851 25.6875 28.875 C25.34138672 29.58269531 24.99527344 30.29039063 24.63867188 31.01953125 C22.90552978 34.64798077 21.54430757 37.97685709 21 42 C26.03853378 38.16649672 29.52119462 33.94718624 33.1875 28.8125 C34.2181562 27.3782659 35.25314409 25.94713215 36.29296875 24.51953125 C36.7418042 23.89151611 37.19063965 23.26350098 37.65307617 22.61645508 C39 21 39 21 42 19 C44.92705269 19.0914704 45.86101831 19.86101831 47.9375 21.9375 C49.38954997 26.1228205 48.22809084 28.62411911 46.76171875 32.6953125 C45.8430936 35.07019194 45.8430936 35.07019194 46 38 C50.2504562 34.06396111 53.98667775 30.56624386 56 25 C55.979375 23.96875 55.95875 22.9375 55.9375 21.875 C56 19 56 19 57.6875 16.5625 C60 15 60 15 62.75 15.25 C63.4925 15.4975 64.235 15.745 65 16 C66 19 66 19 65 21 C68.63 20.67 72.26 20.34 76 20 C77.23400845 24.93603381 76.25683943 26.27175626 74.0625 30.75 C73.49660156 31.92046875 72.93070312 33.0909375 72.34765625 34.296875 C71.90292969 35.18890625 71.45820312 36.0809375 71 37 C71.33 37.33 71.66 37.66 72 38 C75.21580908 35.66122976 77.74102133 33.17788314 80.25 30.125 C84.31043217 25.42159267 88.9788762 20.84618431 95.24609375 19.52734375 C98.13342703 19.40549299 100.43555501 19.7001386 103 21.0625 C104.64143637 24.24278297 104.47732313 26.47974191 104 30 C100.63982527 35.56166852 95.76480837 38.23834225 90.23046875 41.484375 C89.49441406 41.98453125 88.75835937 42.4846875 88 43 C88 43.66 88 44.32 88 45 C93.12811176 43.11620384 96.46013626 40.98267964 100.32421875 37.109375 C102 36 102 36 104.20703125 36.328125 C104.79871094 36.54984375 105.39039063 36.7715625 106 37 C104.63254355 41.37738853 102.78792038 43.39676936 99.1875 46.1875 C98.33542969 46.86167969 97.48335937 47.53585938 96.60546875 48.23046875 C92.16605992 51.24553952 88.26051887 52.51762617 82.93359375 52.38671875 C79.5299599 51.70599198 78.01065197 49.68086929 76 47 C75.37109375 44.828125 75.37109375 44.828125 75 43 C74.48050781 43.48210938 73.96101563 43.96421875 73.42578125 44.4609375 C66.04142177 51.14917436 66.04142177 51.14917436 62 52 C58.8125 51.8125 58.8125 51.8125 56 51 C54 48 54 48 54.12109375 45.2421875 C55.15726896 41.41985229 56.91588071 38.40239456 59.0625 35.125 C59.43955078 34.53203125 59.81660156 33.9390625 60.20507812 33.328125 C61.12784796 31.87972678 62.06270263 30.43903969 63 29 C59.10888102 30.52147124 57.31975754 32.8459273 54.8125 36.125 C49.97394431 42.20114006 44.42466171 49.05109202 37 52 C33.8125 51.75 33.8125 51.75 31 51 C29.64324863 48.28649727 29.93618318 45.99939032 30 43 C30 42.67 30 42.34 30 42 C29.40832031 42.55429687 28.81664062 43.10859375 28.20703125 43.6796875 C27.41683594 44.40414062 26.62664063 45.12859375 25.8125 45.875 C25.03519531 46.59429687 24.25789063 47.31359375 23.45703125 48.0546875 C19.95586532 50.82667579 17.35450375 52.05418015 12.875 51.875 C10 51 10 51 8.125 49.375 C5.97416782 44.83435429 6.42783678 41.61689089 8.0546875 37.01953125 C9.87577566 32.59611888 11.82407441 28.26034029 14 24 C12.35 24 10.7 24 9 24 C8.89300781 24.86496094 8.78601562 25.72992187 8.67578125 26.62109375 C7.96567919 30.17160404 6.82808643 32.84362789 5.1875 36.0625 C4.68605469 37.06410156 4.18460938 38.06570312 3.66796875 39.09765625 C1.06917527 43.61967863 -1.54992308 47.07201601 -6.0625 49.75 C-6.73410156 50.15734375 -7.40570312 50.5646875 -8.09765625 50.984375 C-12.65753826 53.41880893 -16.95813801 53.46217068 -22 53 C-27.23846322 51.34115331 -30.39768594 49.13206613 -34 45 C-35.76111761 41.47776477 -34.92399847 37.72807716 -34 34 C-31.875 30.875 -31.875 30.875 -29 29 C-25.1875 29.1875 -25.1875 29.1875 -22 30 C-20.6875 32.5625 -20.6875 32.5625 -20 36 C-21.07395182 38.06660849 -22.33728421 39.7052251 -23.8359375 41.484375 C-25.2030393 42.94584944 -25.2030393 42.94584944 -25 45 C-20.96579083 44.76269358 -18.59295288 44.46589155 -15.375 41.9375 C-12.57114373 38.46957251 -10.24369961 34.84770614 -8 31 C-8.86625 31.7734375 -8.86625 31.7734375 -9.75 32.5625 C-12 34 -12 34 -14.25 33.6875 C-14.8275 33.460625 -15.405 33.23375 -16 33 C-14.55224845 29.40018534 -12.79045708 27.84896717 -9.5625 25.75 C-8.78003906 25.22921875 -7.99757813 24.7084375 -7.19140625 24.171875 C-5 23 -5 23 -2 23 C-1.34 21.35 -0.68 19.7 0 18 C-0.59167969 18.16757812 -1.18335938 18.33515625 -1.79296875 18.5078125 C-8.28032129 20.17991968 -8.28032129 20.17991968 -12 19.25 C-14 18 -14 18 -15 16 C-15.52954417 11.58134453 -15.58712449 8.08030907 -13.4375 4.125 C-9.58911869 0.77000091 -5.09875051 -2.24345023 0 0 Z " transform="translate(35,4)" style="fill: #D60805;"/><path d="M0 0 C0.78246094 -0.02578125 1.56492188 -0.0515625 2.37109375 -0.078125 C4.5625 0.25 4.5625 0.25 6.33203125 1.4921875 C7.88072725 3.70461036 7.90393721 4.94588969 7.8125 7.625 C7.79703125 8.37523437 7.7815625 9.12546875 7.765625 9.8984375 C7.54913308 12.40474781 7.10051271 14.79423231 6.5625 17.25 C7.119375 16.69570313 7.67625 16.14140625 8.25 15.5703125 C13.22238229 10.84990904 16.68865319 8.0796022 23.5625 7.25 C24.5525 7.58 25.5425 7.91 26.5625 8.25 C28.07653812 13.09492197 26.92852172 16.5091011 25.5625 21.25 C25.99820313 20.84007813 26.43390625 20.43015625 26.8828125 20.0078125 C30.56656858 16.67489033 33.55282125 14.20930019 38.5625 13.25 C41.9375 13.625 41.9375 13.625 44.5625 14.25 C46.47057173 19.80075411 43.89757388 24.37817156 41.5637207 29.3984375 C40.52166074 31.52690039 39.4550906 33.64060064 38.375 35.75 C38.00697266 36.47703125 37.63894531 37.2040625 37.25976562 37.953125 C36.36438354 39.7206325 35.46397525 41.48559239 34.5625 43.25 C39.85770296 40.17052026 44.06478018 36.91753178 48.0625 32.25 C52.41228606 27.2420724 57.05800911 22.18548764 63.80078125 20.78515625 C66.72296206 20.65160137 68.99837137 20.93267765 71.5625 22.375 C73.08163494 25.22337801 73.00044398 27.05926527 72.5625 30.25 C69.70827101 36.2066518 65.00786109 38.92060795 59.5625 42.25 C58.5725 42.91 57.5825 43.57 56.5625 44.25 C56.5625 44.91 56.5625 45.57 56.5625 46.25 C60.51143543 44.74940454 63.5995653 43.39869697 66.75 40.5625 C69.5625 38.25 69.5625 38.25 73.5625 38.25 C72.2138881 42.38237764 70.51868595 44.59731405 67.25 47.4375 C66.49074219 48.11167969 65.73148437 48.78585938 64.94921875 49.48046875 C60.69520522 52.63442641 56.73246313 53.77755577 51.5 53.62890625 C47.98922149 52.94232255 46.53935488 51.09172889 44.5625 48.25 C44.4375 45.0703125 44.4375 45.0703125 44.5625 42.25 C43.82644531 42.87648437 43.09039062 43.50296875 42.33203125 44.1484375 C41.35621094 44.96570312 40.38039062 45.78296875 39.375 46.625 C37.93060547 47.84316406 37.93060547 47.84316406 36.45703125 49.0859375 C32.61549503 51.95801721 30.12824102 53.40055202 25.3125 52.9375 C22.5625 52.25 22.5625 52.25 21.5625 51.25 C20.57336937 44.04347687 23.2622663 38.72156522 26.25 32.32421875 C27.75882479 29.34726845 27.75882479 29.34726845 27.5625 26.25 C21.63336933 31.70550189 17.34242089 37.6033299 13.21875 44.49609375 C8.89383188 51.68231441 8.89383188 51.68231441 5.5625 53.25 C1.8125 53.4375 1.8125 53.4375 -1.4375 53.25 C-2.60304095 50.42702678 -2.47917115 49.357791 -1.35766602 46.45678711 C-0.53286743 44.88296265 -0.53286743 44.88296265 0.30859375 43.27734375 C0.89833984 42.13072266 1.48808594 40.98410156 2.09570312 39.80273438 C2.72964125 38.59722074 3.36441643 37.39214693 4 36.1875 C5.23560083 33.82546154 6.46113704 31.45877022 7.68359375 29.08984375 C8.2345874 28.04175537 8.78558105 26.99366699 9.35327148 25.91381836 C10.76917509 23.2822862 10.76917509 23.2822862 10.5625 20.25 C4.60048211 26.47699646 -0.32106825 32.66285128 -4.4375 40.25 C-3.1175 40.58 -1.7975 40.91 -0.4375 41.25 C-0.4375 42.24 -0.4375 43.23 -0.4375 44.25 C-2.2628125 44.8378125 -2.2628125 44.8378125 -4.125 45.4375 C-8.17240621 46.9373367 -10.5854722 48.96584678 -13.4375 52.25 C-14.4375 53.25 -14.4375 53.25 -18 53.3125 C-19.134375 53.291875 -20.26875 53.27125 -21.4375 53.25 C-22.62123873 49.69878381 -22.561333 48.50261933 -20.875 45.0625 C-18.89390792 40.96645826 -19.84028003 37.94777714 -20.875 33.66015625 C-22.83263839 25.27221953 -20.08847898 17.18480157 -15.74609375 9.953125 C-11.68376107 4.66602934 -6.80814303 0.1341506 0 0 Z " transform="translate(161.4375,4.75)" style="fill: #003DFD;"/><path d="M0 0 C-1.875 3.875 -1.875 3.875 -3 5 C-2.05125 5.680625 -1.1025 6.36125 -0.125 7.0625 C3.32537835 9.96506946 4.37507136 12.46926736 5 17 C4.16947537 21.9000953 2.95451133 24.91053802 -1 28 C-1.66 28 -2.32 28 -3 28 C-2.505 28.804375 -2.01 29.60875 -1.5 30.4375 C0.62948558 35.49502826 0.98202044 39.90413895 -0.69140625 45.1796875 C-3.45985269 51.31892019 -7.11007747 54.84403099 -13.4375 57.375 C-18.70969249 58.29994605 -22.34329881 58.14128304 -26.8125 55.0625 C-28.22749175 53.72836492 -29.62484218 52.37515782 -31 51 C-31.9075 51.78375 -32.815 52.5675 -33.75 53.375 C-38.4786781 57.26791174 -42.72354159 59.07721478 -49 59 C-53.72562729 58.13867877 -57.07770498 56.92229502 -60.5 53.5 C-62 51 -62 51 -63 48 C-61.0625 44.8125 -61.0625 44.8125 -59 42 C-59.99 42 -60.98 42 -62 42 C-61.63680051 39.3668037 -61.14494976 38.15568678 -59.3125 36.1875 C-56.15824006 34.5677449 -54.35552131 35.0517005 -51 36 C-50.34 36.66 -49.68 37.32 -49 38 C-49.1875 41.5 -49.1875 41.5 -50 45 C-50.99 45.66 -51.98 46.32 -53 47 C-53 47.99 -53 48.98 -53 50 C-48.96579083 49.76269358 -46.59295288 49.46589155 -43.375 46.9375 C-40.57114373 43.46957251 -38.24369961 39.84770614 -36 36 C-36.7425 36.0825 -37.485 36.165 -38.25 36.25 C-41 36 -41 36 -43.25 34.1875 C-46.36496581 30.29379273 -46.3228764 26.84314595 -46 22 C-42.79016227 12.69147059 -37.58385499 8.34695221 -29 4 C-24.10724499 2.28960895 -18.6546479 2.61591383 -13.53125 2.37890625 C-8.4900633 1.83798246 -5.24810247 -0.23855011 0 0 Z " transform="translate(294,1)" style="fill: #D70805;"/><path d="M0 0 C6.37266549 2.05221431 11.18026149 6.30465828 15.6875 11.1875 C15.460625 9.929375 15.23375 8.67125 15 7.375 C14.5316092 3.49011156 14.5316092 3.49011156 15.75 1.125 C18.90625546 -0.40222038 20.34264413 0.07254804 23.6875 1.1875 C31.85249369 6.24641323 38.96909598 13.73491704 44.125 21.8125 C44.640625 22.59625 45.15625 23.38 45.6875 24.1875 C46.3475 24.1875 47.0075 24.1875 47.6875 24.1875 C46.06442993 19.73385845 43.78051502 16.29222502 41.02734375 12.46875 C39.55904052 9.96878181 38.99088695 8.06267474 38.6875 5.1875 C39.6875 2.1875 39.6875 2.1875 41.375 0.9375 C44.73243265 -0.15139707 46.28548029 0.09628613 49.6875 1.1875 C53.21019072 3.5808231 56.66960283 6.16960283 59.6875 9.1875 C60.120625 8.07375 60.55375 6.96 61 5.8125 C62.6875 2.1875 62.6875 2.1875 65.6875 0.1875 C72.0357049 -0.45808016 76.45647388 0.47610158 81.6875 4.1875 C84.84415928 7.04868416 87.79849413 10.05774364 90.6875 13.1875 C90.3575 14.1775 90.0275 15.1675 89.6875 16.1875 C86.38467474 15.11893889 84.42915942 13.96763568 81.75 11.6875 C78.70895049 9.2050106 76.44498943 8.17160437 72.6875 7.1875 C73.84642698 10.66428093 74.38056249 10.85015531 77.4375 12.5625 C82.18618725 15.38788381 85.60851567 18.5690235 88.6875 23.1875 C88.875 25.8125 88.875 25.8125 88.6875 28.1875 C86.77982513 30.09517487 83.73992831 29.57842187 81.1875 29.6875 C74.74757694 29.63519606 71.37366946 28.58684085 66.6484375 24.265625 C64.10799634 21.57336464 61.62343946 18.86149934 59.29296875 15.984375 C57.58676805 14.07475864 55.7780862 12.65680571 53.6875 11.1875 C54.1928125 12.23550781 54.698125 13.28351563 55.21875 14.36328125 C55.87530327 15.74204312 56.53153665 17.12095736 57.1875 18.5 C57.52136719 19.19029297 57.85523437 19.88058594 58.19921875 20.59179688 C60.6875 25.84765625 60.6875 25.84765625 60.6875 29.1875 C54.4175 29.1875 48.1475 29.1875 41.6875 29.1875 C40.6975 26.8775 39.7075 24.5675 38.6875 22.1875 C35.86784486 18.10386152 32.53899102 15.25118604 28.6875 12.1875 C28.97625 12.92355469 29.265 13.65960938 29.5625 14.41796875 C29.93375 15.39378906 30.305 16.36960937 30.6875 17.375 C31.05875 18.33792969 31.43 19.30085938 31.8125 20.29296875 C32.66880906 23.1256697 32.93778745 25.25183674 32.6875 28.1875 C31.14571606 29.72928394 29.6890364 29.57056798 27.546875 29.734375 C24.61105628 29.69950779 23.15975374 29.54967587 20.81054688 27.74804688 C19.04701968 25.72050626 17.47944936 23.63810921 15.9375 21.4375 C14.86425388 19.98076785 13.78623303 18.52753963 12.703125 17.078125 C11.94612305 16.0581543 11.94612305 16.0581543 11.17382812 15.01757812 C9.27896642 12.68448296 7.13955893 10.91302295 4.6875 9.1875 C7.25651559 16.5638276 7.25651559 16.5638276 10.4375 23.6875 C11.6875 26.1875 11.6875 26.1875 11.6875 29.1875 C7.7275 29.1875 3.7675 29.1875 -0.3125 29.1875 C-1.46079977 26.917884 -2.60621978 24.64689222 -3.75 22.375 C-4.07548828 21.73240234 -4.40097656 21.08980469 -4.73632812 20.42773438 C-7.4161057 15.0958058 -8.93692343 11.22359315 -8.3125 5.1875 C-5.76884044 1.48763154 -4.53099754 0.25647156 0 0 Z " transform="translate(50.3125,59.8125)" style="fill: #D70200;"/><path d="M0 0 C5.56 0.48347826 5.56 0.48347826 7.4375 2.6875 C8.98542452 9.05118968 5.44509675 15.24549323 3 21 C4.65 19.68 6.3 18.36 8 17 C10.475 17.99 10.475 17.99 13 19 C13.3152595 24.98993047 12.68219822 28.63560356 10 34 C11.32 33.67 12.64 33.34 14 33 C14.33 33.99 14.66 34.98 15 36 C11.56291566 39.97412876 8.87245084 41.61754421 3.91015625 43.25 C1.75612678 43.98591767 1.75612678 43.98591767 -0.5625 46.0625 C-3.63694216 48.50628736 -6.14654227 49.31188255 -10 50 C-13.39855557 49.30484091 -14.62183226 48.4411957 -16.875 45.8125 C-18.32502401 42.18743997 -17.81163525 39.76303616 -17 36 C-17.42410156 36.40992188 -17.84820312 36.81984375 -18.28515625 37.2421875 C-22.406905 41.02876108 -25.51225575 42.57725149 -31 44 C-31.804375 44.66 -32.60875 45.32 -33.4375 46 C-36.75212005 48.58702053 -39.82612939 49.60289085 -44 50 C-47.94056193 49.05769171 -48.71275588 48.43086618 -51 45 C-51.07905064 42.66800612 -51.08798769 40.33167378 -51 38 C-51.66 38 -52.32 38 -53 38 C-52.09456733 32.76474185 -48.52796828 29.75152271 -45 26 C-44.37996094 25.33871094 -43.75992187 24.67742188 -43.12109375 23.99609375 C-36.75569849 17.41072802 -36.75569849 17.41072802 -31.74609375 16.6640625 C-30.98425781 16.65117187 -30.22242188 16.63828125 -29.4375 16.625 C-28.67308594 16.59664062 -27.90867187 16.56828125 -27.12109375 16.5390625 C-25 17 -25 17 -23.2109375 18.71484375 C-21.08571384 22.72534646 -22.17699348 26.68270309 -23 31 C-24.0625 34.125 -24.0625 34.125 -25 36 C-17.49045107 28.71801316 -11.68149874 21.31630656 -6.625 12.125 C-6.09261719 11.17625 -5.56023437 10.2275 -5.01171875 9.25 C-2.43352671 4.66352564 -2.43352671 4.66352564 0 0 Z " transform="translate(347,9)" style="fill: #D70805;"/><path d="M0 0 C2.00348966 1.66247014 4.00334402 3.32932867 6 5 C8.29350246 5.89762941 10.56996699 6.59373906 12.94921875 7.2265625 C15.25214843 8.09509598 16.39877018 9.15985652 18 11 C17.9175 10.13375 17.835 9.2675 17.75 8.375 C18.06422683 4.13293778 19.24254393 2.2046111 22 -1 C25.44309467 -2.58196241 26.89017496 -2.03726207 30.5 -0.8125 C34 1 34 1 36.5 3.0625 C38.9681307 5.2335378 38.9681307 5.2335378 42.5 5.9375 C46.78482993 7.23825194 48.28514373 8.44164849 51 12 C51.59603521 15.13155587 51.47528562 18.13943256 51.3125 21.3125 C51.28994141 22.14845703 51.26738281 22.98441406 51.24414062 23.84570312 C51.1855061 25.89791149 51.09583215 27.94919202 51 30 C44.14995042 30.10169146 37.30009661 30.17158775 30.44946289 30.21972656 C28.12061285 30.23980146 25.79181295 30.26706736 23.46313477 30.30175781 C20.10941162 30.35045591 16.75635683 30.37301065 13.40234375 30.390625 C12.36665756 30.41127014 11.33097137 30.43191528 10.26390076 30.45318604 C2.66773054 30.45552669 -1.4610105 29.03255829 -7.29296875 24.03515625 C-17 13.92783505 -17 13.92783505 -17 10 C-16.34 10 -15.68 10 -15 10 C-15.0825 8.9275 -15.165 7.855 -15.25 6.75 C-15 3 -15 3 -13.1875 0.625 C-8.6942537 -2.71284011 -4.95693164 -1.94668771 0 0 Z " transform="translate(311,63)" style="fill: #D60200;"/><path d="M0 0 C0.495 1.485 0.495 1.485 1 3 C1.66 3 2.32 3 3 3 C3.66 5.97 4.32 8.94 5 12 C10.1993393 14.05807181 13.07279464 14.21497841 18.23046875 11.99609375 C20.18165795 11.00808314 20.18165795 11.00808314 22 8.9375 C24.4615613 6.55286249 26.67362941 6.30772358 29.9609375 5.63671875 C33.37294113 4.57128467 35.43498833 2.43676109 38 0 C37.773125 1.216875 37.54625 2.43375 37.3125 3.6875 C36.93703716 6.75650059 36.98362445 7.95724163 38.125 10.9375 C39.84714635 13.10347436 39.84714635 13.10347436 42.1875 14 C47.15228746 14 51.53491708 12.46508292 55.0625 8.9375 C57.7061207 6.2938793 60.43699461 6.00014187 64 5 C65.65 3.68 67.3 2.36 69 1 C69 10.9 69 20.8 69 31 C67.02 29.35 65.04 27.7 63 26 C60.66989091 25.32215008 58.33640176 24.65583207 56 24 C54.17578125 22.80859375 54.17578125 22.80859375 52.375 21.4375 C49.59340948 19.3388893 47.59069066 18.09449186 44 18 C41.10532151 18.74049915 39.53373442 19.31377003 37.6875 21.6875 C36.7521829 24.83356663 36.87458635 27.73924509 37 31 C36.49210937 30.66226563 35.98421875 30.32453125 35.4609375 29.9765625 C32.26774718 27.90756652 29.44058431 26.14686144 25.8125 24.9375 C23 24 23 24 20.625 22 C16.46429588 18.82993972 12.32070865 17.74774906 7.125 18.3125 C3.70153164 21.03113664 3.57591679 24.82245432 3 29 C2.34 29 1.68 29 1 29 C5.5530221 37.05423846 11.54934009 44.04437196 20 48 C20 48.33 20 48.66 20 49 C16.72933434 49.08706892 13.45896635 49.14041241 10.1875 49.1875 C8.7943457 49.22520508 8.7943457 49.22520508 7.37304688 49.26367188 C6.48037109 49.27333984 5.58769531 49.28300781 4.66796875 49.29296875 C3.84578857 49.3086792 3.0236084 49.32438965 2.17651367 49.34057617 C-0.47502434 48.92566921 -1.33263592 48.04470249 -3 46 C-2.505 45.154375 -2.01 44.30875 -1.5 43.4375 C0.50404499 38.8448969 0.79333767 35.51650122 -0.7265625 30.6953125 C-2.63981552 25.95106721 -4.45198418 22.64419525 -9 20 C-14.02075517 18.0474841 -17.77832831 17.54953564 -23 19 C-25.7295585 21.47906969 -25.7295585 21.47906969 -28 24 C-31.60047801 24 -32.41639118 23.16789117 -35.25 21.0625 C-39.31385644 18.23575862 -42.08582609 17.20911378 -47 17 C-46.67 16.34 -46.34 15.68 -46 15 C-44.04612885 14.53636956 -42.09161987 14.07512384 -40.1328125 13.6328125 C-36.9798641 12.69732231 -34.61814217 10.94838487 -32 9 C-31.01 8.34 -30.02 7.68 -29 7 C-28.443125 7.78375 -27.88625 8.5675 -27.3125 9.375 C-24.7836953 12.24553506 -23.70086738 13.17758503 -20 14 C-13.9775054 14.08922214 -9.6636184 13.01288095 -5 9 C-2.73250274 5.99709822 -1.18833551 3.56500652 0 0 Z " transform="translate(293,44)" style="fill: #000000;"/><path d="M0 0 C3.3940064 1.59689908 6.1202478 3.62107427 9 6 C9.66 6.33 10.32 6.66 11 7 C11.556875 6.21625 12.11375 5.4325 12.6875 4.625 C15.19331573 1.78056053 16.33877302 0.83209704 20 0 C27.22539585 0.23307729 32.15755616 2.08073336 37.3125 7.375 C40.57714476 12.4533363 41.5366657 16.98934417 41 23 C39.5 26.4375 39.5 26.4375 38 29 C38.66 29.99 39.32 30.98 40 32 C35.45943197 32.26200753 30.92080597 32.42142326 26.375 32.5625 C24.44720703 32.67561523 24.44720703 32.67561523 22.48046875 32.79101562 C13.15803513 33.00837807 13.15803513 33.00837807 9.88793945 30.16088867 C8.33137694 27.83880362 7.14258735 25.54805451 6 23 C5.35933594 21.96230469 4.71867187 20.92460938 4.05859375 19.85546875 C2.97138152 18.0661532 1.8880892 16.27445039 0.80859375 14.48046875 C-1.19912422 11.72690307 -3.18368158 9.91138852 -6 8 C-9.20980136 7.66486406 -9.20980136 7.66486406 -12 8 C-11.56852759 10.50254 -11.35368939 11.70072437 -9.375 13.375 C-8.92125 13.91125 -8.4675 14.4475 -8 15 C-8.3125 18.1875 -8.3125 18.1875 -9 21 C-11.6875 22.1875 -11.6875 22.1875 -15 23 C-17.91002973 21.80953329 -19.47761218 20.83688661 -21.1484375 18.16015625 C-22.6306394 14.40025876 -21.95608942 10.85187105 -21 7 C-16.06213985 -1.00273887 -8.74840721 -1.21619212 0 0 Z " transform="translate(253,61)" style="fill: #D50300;"/><path d="M0 0 C8.7052562 6.54123771 13.62126404 16.53356177 16 27 C7.08297238 27.62894395 0.53960666 27.04679554 -7 22 C-9 20 -9 20 -9 16 C-6.0280615 17.12451727 -3.66559313 18.22293791 -1 20 C-2.05109514 18.24312628 -3.11643123 16.49476874 -4.1875 14.75 C-4.77917969 13.77546875 -5.37085937 12.8009375 -5.98046875 11.796875 C-8.0723531 8.89979726 -10.0513569 7.00356519 -13 5 C-15.7104607 4.66407492 -15.7104607 4.66407492 -18 5 C-18.33 6.65 -18.66 8.3 -19 10 C-18.360625 10.2475 -17.72125 10.495 -17.0625 10.75 C-15 12 -15 12 -14 13.8125 C-14 17.13230681 -15.82923058 18.6318879 -18 21 C-21.66406136 20.75017763 -23.53511145 20.41463033 -26.3125 17.9375 C-28.43359809 14.24521814 -29.30983945 11.26238599 -29 7 C-27.10648098 2.31128624 -24.67303191 0.58058251 -20.1875 -1.375 C-12.97313366 -3.89950008 -6.69118464 -3.77418636 0 0 Z " transform="translate(29,62)" style="fill: #D60200;"/><path d="M0 0 C3.875 1.75 3.875 1.75 5 4 C5.0396713 5.66619446 5.04384447 7.33391013 5 9 C5.61875 9.0825 6.2375 9.165 6.875 9.25 C9 10 9 10 10.25 11.8125 C11 14 11 14 11 18 C12.65 18 14.3 18 16 18 C14.02 18.99 14.02 18.99 12 20 C13.32 20 14.64 20 16 20 C15.2812193 12.95792295 15.2812193 12.95792295 14 6 C17.47930632 7.46783236 19.51423202 9.36673595 22 12.1875 C22.66 12.92355469 23.32 13.65960938 24 14.41796875 C26.36665565 17.47335818 28.14601758 20.61068838 30 24 C25.97941398 24.11686443 21.95926918 24.18747388 17.9375 24.25 C16.2369043 24.30027344 16.2369043 24.30027344 14.50195312 24.3515625 C6.21949296 24.44815096 2.04711432 23.4679702 -4.29296875 18.03515625 C-14 7.92783505 -14 7.92783505 -14 5 C-9.71 5 -5.42 5 -1 5 C-0.67 3.35 -0.34 1.7 0 0 Z " transform="translate(308,69)" style="fill: #D60000;"/><path d="M0 0 C3.7218325 1.27086964 5.67194758 3.37060253 7.65625 6.72265625 C8.66848814 9.12672182 8.86195714 10.90012354 8.875 13.5 C8.89175781 14.27601562 8.90851563 15.05203125 8.92578125 15.8515625 C8.80589844 16.51929687 8.68601562 17.18703125 8.5625 17.875 C5.5625 19.875 5.5625 19.875 2.5625 19.875 C2.5625 21.195 2.5625 22.515 2.5625 23.875 C-1.2357382 24.42243291 -4.65793918 24.62673585 -8.4375 23.875 C-11.29316597 21.32614112 -12.76115329 18.27880156 -14.4375 14.875 C-15.39156665 13.18508407 -16.34967607 11.49744187 -17.3125 9.8125 C-18.01375 8.513125 -18.715 7.21375 -19.4375 5.875 C-15.1475 5.875 -10.8575 5.875 -6.4375 5.875 C-6.1075 4.555 -5.7775 3.235 -5.4375 1.875 C-2.4375 -0.125 -2.4375 -0.125 0 0 Z " transform="translate(273.4375,69.125)" style="fill: #D50000;"/><path d="M0 0 C2.00348966 1.66247014 4.00334402 3.32932867 6 5 C8.36279093 5.86135188 10.70134036 6.53550143 13.14453125 7.12890625 C15 8 15 8 15.76171875 10.08984375 C15.84035156 10.72019531 15.91898437 11.35054687 16 12 C14.35 12 12.7 12 11 12 C11.34224609 12.97839844 11.34224609 12.97839844 11.69140625 13.9765625 C13.3485464 19.01486305 14.52613509 22.72789698 13 28 C11.35 27.67 9.7 27.34 8 27 C8 26.01 8 25.02 8 24 C7.69949171 22.59673361 7.36409864 21.20062607 7 19.8125 C6.67 18.554375 6.34 17.29625 6 16 C4.35 15.67 2.7 15.34 1 15 C1.0825 14.071875 1.165 13.14375 1.25 12.1875 C1.35303045 8.90894778 1.35303045 8.90894778 -1 7.125 C-1.66 6.75375 -2.32 6.3825 -3 6 C-3.33 7.65 -3.66 9.3 -4 11 C-8.29 11 -12.58 11 -17 11 C-16.34 10.67 -15.68 10.34 -15 10 C-15.0825 8.9275 -15.165 7.855 -15.25 6.75 C-15 3 -15 3 -13.1875 0.625 C-8.6942537 -2.71284011 -4.95693164 -1.94668771 0 0 Z " transform="translate(311,63)" style="fill: #D80400;"/><path d="M0 0 C2.96175123 0.61277612 4.38058783 1.25372522 7 3 C7 4.32 7 5.64 7 7 C8.98 7 10.96 7 13 7 C13 6.34 13 5.68 13 5 C13.99 5 14.98 5 16 5 C16.33 5.99 16.66 6.98 17 8 C19.475 8.495 19.475 8.495 22 9 C22 14.28 22 19.56 22 25 C17.71 25 13.42 25 9 25 C7.30056907 21.40102941 5.61515936 17.79660119 3.9375 14.1875 C3.20950195 12.65125977 3.20950195 12.65125977 2.46679688 11.08398438 C2.01240234 10.10107422 1.55800781 9.11816406 1.08984375 8.10546875 C0.66566162 7.19949951 0.24147949 6.29353027 -0.19555664 5.36010742 C-1 3 -1 3 0 0 Z " transform="translate(340,68)" style="fill: #D10000;"/><path d="M0 0 C-2.14612234 3.22665261 -4.30028843 6.4472049 -6.47265625 9.65625 C-7.33597596 10.93747409 -8.19925674 12.2187244 -9.0625 13.5 C-9.7131543 14.45712891 -9.7131543 14.45712891 -10.37695312 15.43359375 C-12.88975654 19.1741139 -15.07542375 22.91106423 -17 27 C-17.2475 26.38125 -17.495 25.7625 -17.75 25.125 C-18.80502183 22.8321526 -18.80502183 22.8321526 -21.0625 22.1875 C-23 21 -23 21 -24 17.8125 C-24 13.21158192 -23.08793358 10.34016578 -20 7 C-13.40581581 2.20520921 -8.20811352 -0.15487007 0 0 Z " transform="translate(277,9)" style="fill: #000000;"/><path d="M0 0 C13.78397002 -1.03236391 13.78397002 -1.03236391 18.3125 2.6875 C20.73572888 5.25076472 21.89367594 7.38498206 22 11 C23.65 11 25.3 11 27 11 C27 11.66 27 12.32 27 13 C13.556066 14.20479067 13.556066 14.20479067 7.875 9.875 C4.62070039 6.89946721 2.15315031 3.83822446 0 0 Z " transform="translate(111,76)" style="fill: #D80000;"/><path d="M0 0 C3.7218325 1.27086964 5.67194758 3.37060253 7.65625 6.72265625 C8.66848814 9.12672182 8.86195714 10.90012354 8.875 13.5 C8.89175781 14.27601562 8.90851563 15.05203125 8.92578125 15.8515625 C8.80589844 16.51929687 8.68601562 17.18703125 8.5625 17.875 C5.5625 19.875 5.5625 19.875 2.5625 19.875 C2.2325 21.195 1.9025 22.515 1.5625 23.875 C0.30585022 20.96899739 -0.4375 19.07895416 -0.4375 15.875 C1.2125 15.875 2.8625 15.875 4.5625 15.875 C3.85886171 12.60606508 3.85886171 12.60606508 0.6875 11.375 C-0.34375 10.88 -1.375 10.385 -2.4375 9.875 C-4.3125 8.5 -4.3125 8.5 -5.4375 6.875 C-5.8125 4.3125 -5.8125 4.3125 -5.4375 1.875 C-2.4375 -0.125 -2.4375 -0.125 0 0 Z " transform="translate(273.4375,69.125)" style="fill: #000000;"/><path d="M0 0 C2.35171131 0.59861742 4.6859378 1.26924352 7 2 C8.53597454 5.07194908 8.2265038 7.60244293 8 11 C6.40104465 15.07733613 4.60339803 18.42614427 1 21 C-2.25 20.75 -2.25 20.75 -5 20 C-5.8125 17.8125 -5.8125 17.8125 -6 15 C-3.30668806 11.6910739 -0.75140102 9.87570051 3 8 C3.33 7.01 3.66 6.02 4 5 C2.35 5 0.7 5 -1 5 C-0.67 3.35 -0.34 1.7 0 0 Z " transform="translate(274,30)" style="fill: #000000;"/><path d="M0 0 C0.66 0.33 1.32 0.66 2 1 C1.58320024 7.53577504 -0.92516437 12.26267695 -4.0625 17.9375 C-4.77116211 19.24944336 -4.77116211 19.24944336 -5.49414062 20.58789062 C-6.65332746 22.73062992 -7.82203317 24.86754529 -9 27 C-11.47158264 22.30655737 -11.34042553 19.12151028 -10 14 C-7.56334788 8.38445404 -5.22250782 3.42125241 0 0 Z " transform="translate(155,12)" style="fill: #000000;"/><path d="M0 0 C3.96 0 7.92 0 12 0 C13.59138085 4.17737474 14.21278058 7.53160785 14 12 C12.35 12.66 10.7 13.32 9 14 C4.64116063 10.7066547 2.04360701 8.22255125 0 3 C0 2.01 0 1.02 0 0 Z " transform="translate(346,79)" style="fill: #D60000;"/><path d="M0 0 C7.50586405 3.1665364 12.41394968 10.97731813 16 18 C10.72 18 5.44 18 0 18 C0.66 16.68 1.32 15.36 2 14 C2.06557362 11.79712373 2.06557362 11.79712373 1.6875 9.5625 C1.57921875 8.78132813 1.4709375 8.00015625 1.359375 7.1953125 C0.96437927 4.78240381 0.53862164 2.38532443 0 0 Z " transform="translate(322,75)" style="fill: #000000;"/><path d="M0 0 C3.875 1.875 3.875 1.875 5 3 C5.29819198 6.28011182 5.10644041 8.68067877 4.0625 11.8125 C1.22977391 14.81690646 -1.13244776 14.72073456 -5.13671875 14.95703125 C-5.75160156 14.97121094 -6.36648438 14.98539063 -7 15 C-6.40458546 13.24700288 -5.79828086 11.49770252 -5.1875 9.75 C-4.85105469 8.77546875 -4.51460938 7.8009375 -4.16796875 6.796875 C-3.05867958 4.14051698 -1.8306717 2.20310061 0 0 Z " transform="translate(283,11)" style="fill: #000000;"/><path d="M0 0 C2.86724686 0.57344937 3.8614515 0.8614515 6 3 C6.23828125 5.3203125 6.23828125 5.3203125 6.3125 8.125 C6.83674134 15.38812546 9.82842196 20.04012398 15 25 C13.02 25 11.04 25 9 25 C7.2966371 21.40312101 5.61509411 17.79646081 3.9375 14.1875 C3.20950195 12.65125977 3.20950195 12.65125977 2.46679688 11.08398438 C2.01240234 10.10107422 1.55800781 9.11816406 1.08984375 8.10546875 C0.66566162 7.19949951 0.24147949 6.29353027 -0.19555664 5.36010742 C-1 3 -1 3 0 0 Z " transform="translate(340,68)" style="fill: #000000;"/><path d="M0 0 C3.875 1.75 3.875 1.75 5 4 C5.0396713 5.66619446 5.04384447 7.33391013 5 9 C5.61875 9.0825 6.2375 9.165 6.875 9.25 C9 10 9 10 10.25 11.75 C11.0957901 14.28737029 11.14764761 16.34234296 11 19 C9.234375 18.85546875 9.234375 18.85546875 7 18 C5.078125 15.48828125 5.078125 15.48828125 3.25 12.3125 C2.63640625 11.27738281 2.0228125 10.24226563 1.390625 9.17578125 C-0.07924293 5.81903231 -0.28214318 3.6190289 0 0 Z " transform="translate(308,69)" style="fill: #000000;"/><path d="M0 0 C-0.875 6.75 -0.875 6.75 -2 9 C-4.0625 9.625 -4.0625 9.625 -6 10 C-5.938125 10.928125 -5.87625 11.85625 -5.8125 12.8125 C-6 16 -6 16 -7.375 17.875 C-9 19 -9 19 -11 19 C-10.56278733 12.15033479 -7.99266013 6.43320401 -3.4609375 1.234375 C-2 0 -2 0 0 0 Z " transform="translate(319,32)" style="fill: #000000;"/><path d="M0 0 C0.86625 0.3403125 0.86625 0.3403125 1.75 0.6875 C2.08 2.0075 2.41 3.3275 2.75 4.6875 C-3.53571429 9.11607143 -3.53571429 9.11607143 -7.25 9.6875 C-6.76454933 3.25527857 -6.76454933 3.25527857 -4.4375 0.6875 C-2.25 -0.3125 -2.25 -0.3125 0 0 Z " transform="translate(256.25,83.3125)" style="fill: #CE0000;"/><path d="M0 0 C1.24853799 3.74561398 0.66665167 6.13342032 0 10 C-0.2165625 11.3921875 -0.2165625 11.3921875 -0.4375 12.8125 C-1 15 -1 15 -3 17 C-3.99 17 -4.98 17 -6 17 C-7 14 -7 14 -5.56640625 10.64453125 C-4.90851193 9.3619696 -4.24010257 8.08475943 -3.5625 6.8125 C-3.22412109 6.15830078 -2.88574219 5.50410156 -2.53710938 4.83007812 C-1.70030902 3.21540701 -0.85130254 1.60707237 0 0 Z " transform="translate(346,35)" style="fill: #000000;"/><path d="M0 0 C5.78461538 4.30769231 5.78461538 4.30769231 6.875 7.8125 C6.936875 8.8953125 6.936875 8.8953125 7 10 C8.65 10 10.3 10 12 10 C12 10.66 12 11.32 12 12 C7.38 12 2.76 12 -2 12 C-2.33 11.34 -2.66 10.68 -3 10 C-0.36 10 2.28 10 5 10 C4.6390625 9.52949219 4.278125 9.05898437 3.90625 8.57421875 C3.21015625 7.64029297 3.21015625 7.64029297 2.5 6.6875 C1.80390625 5.76517578 1.80390625 5.76517578 1.09375 4.82421875 C0 3 0 3 0 0 Z " transform="translate(126,77)" style="fill: #D10000;"/><path d="M0 0 C2.97 0.495 2.97 0.495 6 1 C6 6.28 6 11.56 6 17 C4.35 17 2.7 17 1 17 C1.66 16.34 2.32 15.68 3 15 C3.10988249 9.82636597 2.32492733 4.64985465 0 0 Z " transform="translate(356,76)" style="fill: #020000;"/><path d="M0 0 C0.66 1.32 1.32 2.64 2 4 C-0.0622048 4.054348 -2.12482816 4.09294961 -4.1875 4.125 C-5.33605469 4.14820312 -6.48460937 4.17140625 -7.66796875 4.1953125 C-10.91740372 4.00484152 -13.08660521 3.39360127 -16 2 C-16 1.67 -16 1.34 -16 1 C-8.08 0.505 -8.08 0.505 0 0 Z " transform="translate(43,85)" style="fill: #E60000;"/><path d="M0 0 C2.4375 0.8125 2.4375 0.8125 5 2 C5.33 2.99 5.66 3.98 6 5 C4.35 5.66 2.7 6.32 1 7 C-0.32 5.35 -1.64 3.7 -3 2 C-2.01 2 -1.02 2 0 2 C0 1.34 0 0.68 0 0 Z " transform="translate(327,73)" style="fill: #C70000;"/><path d="M0 0 C0.33 1.32 0.66 2.64 1 4 C-1.64 3.67 -4.28 3.34 -7 3 C-5.51127558 -1.46617326 -4.10580088 -1.23174026 0 0 Z " transform="translate(258,84)" style="fill: #E10000;"/><path d="M0 0 C5.78461538 4.43076923 5.78461538 4.43076923 6.875 7.3125 C6.936875 8.1478125 6.936875 8.1478125 7 9 C3.64564078 7.61198929 1.88709697 6.11371 0 3 C0 2.01 0 1.02 0 0 Z " transform="translate(126,77)" style="fill: #000000;"/><path d="M0 0 C0.598125 0.350625 1.19625 0.70125 1.8125 1.0625 C1.4825 2.0525 1.1525 3.0425 0.8125 4.0625 C-0.8375 3.7325 -2.4875 3.4025 -4.1875 3.0625 C-4.5175 2.0725 -4.8475 1.0825 -5.1875 0.0625 C-2.1875 -0.9375 -2.1875 -0.9375 0 0 Z " transform="translate(66.1875,71.9375)" style="fill: #C20000;"/><path d="M0 0 C0.33 0.66 0.66 1.32 1 2 C-0.65 3.98 -2.3 5.96 -4 8 C-4.66 7.67 -5.32 7.34 -6 7 C-4.02 4.69 -2.04 2.38 0 0 Z " transform="translate(132,30)" style="fill: #0C0000;"/></svg>